<svg xmlns="http://www.w3.org/2000/svg" width="145.001" height="151.746" viewBox="0 0 145.001 151.746"><defs><style>.a{fill:#ff6584;}.b{fill:#fff;}.c{fill:#bdc0ce;}.d{fill:#3f3d56;}.e{fill:#92aa99;}.f{fill:#0d7389;}</style></defs><g transform="translate(22.862)"><circle class="a" cx="15.274" cy="15.274" r="15.274" transform="translate(64.869 35.897)"/><path class="b" d="M945.384,383.461c.034-.006.059-.03.1-.024a1.3,1.3,0,0,0-.067-.193l-.142.193Z" transform="translate(-823.343 -320.902)"/><path class="c" d="M440.25,393.441a35.5,35.5,0,0,0,1.658,9.812c.023.074.047.146.072.22h6.188c-.007-.066-.013-.14-.02-.22-.413-4.743-2.791-33.612.053-38.549C447.952,365.1,439.77,378.369,440.25,393.441Z" transform="translate(-420.655 -306.119)"/><path class="c" d="M423.564,472.534c.052.074.106.147.161.22h4.642l-.123-.22c-.767-1.384-3.037-5.522-5.144-9.812-2.264-4.61-4.342-9.4-4.167-11.127C418.879,451.985,417.312,463.893,423.564,472.534Z" transform="translate(-403.504 -375.4)"/><path class="c" d="M653.366,460.264a30.943,30.943,0,0,1-1.446,8.555c-.02.064-.041.128-.062.192h-5.395c.006-.058.011-.122.017-.192.36-4.135,2.434-29.3-.046-33.608C646.651,435.56,653.784,447.125,653.366,460.264Z" transform="translate(-585.069 -362.336)"/><path class="c" d="M662.166,529.219c-.045.064-.092.129-.14.192h-4.047l.107-.192c.669-1.207,2.648-4.814,4.484-8.554,1.974-4.019,3.785-8.191,3.633-9.7C666.25,511.3,667.616,521.685,662.166,529.219Z" transform="translate(-594.273 -422.737)"/><path class="d" d="M361.491,128.779l2.516-2.012a2.666,2.666,0,0,0-3.086,1.694,4.285,4.285,0,0,0-3.189.2l5.034,1.827A3.809,3.809,0,0,0,361.491,128.779Z" transform="translate(-354.876 -116.381)"/><path class="d" d="M735.375,77.674l2.516-2.012a2.666,2.666,0,0,0-3.086,1.694,4.285,4.285,0,0,0-3.189.2l5.034,1.827A3.809,3.809,0,0,0,735.375,77.674Z" transform="translate(-652.987 -75.633)"/><path class="d" d="M738.357,471.137q0,2.5-.174,4.961A69.741,69.741,0,0,1,725.227,512q-1.484,2.072-3.117,4.027a70.435,70.435,0,0,1-9.354,9.291l-14.91-8.749-8.915-20.807s13.3-26.932,49.4-26.443Q738.356,470.224,738.357,471.137Z" transform="translate(-618.953 -389.525)"/><path class="e" d="M743.26,502.042a70.138,70.138,0,0,1-26.2,49.849l-13.852-8.127L695.3,525.31S708.111,499.372,743.26,502.042Z" transform="translate(-624.031 -415.47)"/><path class="d" d="M384.205,550.075q-1.484,2.072-3.117,4.027a70.157,70.157,0,0,1-27.153,19.968q-3.2,1.32-6.553,2.328a76.778,76.778,0,0,1-48.69-3.091,70.384,70.384,0,0,1-34.853-34q-1.452-3.053-2.612-6.26c13.482-9.876,40.048-24.019,69-10.277q12.014,5.7,21.455,10.395C367.655,541.085,378.285,546.792,384.205,550.075Z" transform="translate(-277.93 -427.602)"/><path class="e" d="M391.363,576.3a70.179,70.179,0,0,1-117.249-14.792c11.26-8.9,37.23-24.905,65.73-11.38q10.994,5.218,19.63,9.513C376.259,567.963,386.6,573.616,391.363,576.3Z" transform="translate(-288.205 -449.803)"/><path class="d" d="M400.536,701.754a70.849,70.849,0,0,1-7.28,3.509,70.207,70.207,0,0,1-82.712-22.606C327.294,680.891,373.594,678.51,400.536,701.754Z" transform="translate(-317.252 -558.795)"/><path class="e" d="M412.519,726.851A70.207,70.207,0,0,1,334.7,710.046C340.8,709.151,388.627,703,412.519,726.851Z" transform="translate(-336.515 -580.383)"/><path class="c" d="M450.284,163.52v0c-50.077-37.026-107.452-10.965-107.895-10.765v0A70.141,70.141,0,0,1,450.284,163.52Z" transform="translate(-342.643 -120.799)"/><ellipse class="d" cx="15.586" cy="31.802" rx="15.586" ry="31.802" transform="translate(-22.862 23.141) rotate(-10.221)"/><path class="f" d="M315.934,293.7c-.5-37.967-13.205-73.6-13.334-73.952l-1.159.418c.128.353,12.761,35.8,13.261,73.55Z" transform="translate(-309.995 -190.538)"/><rect class="f" width="1.232" height="15.984" transform="translate(-16.977 48.551) rotate(-72.079)"/><rect class="f" width="15.984" height="1.232" transform="translate(-0.521 55.982) rotate(-38.378)"/><ellipse class="d" cx="16.866" cy="34.413" rx="16.866" ry="34.413" transform="translate(27.631 8.672)"/><path class="f" d="M550.34,246.257c6.755-40.528.068-80.91,0-81.313l-1.314.223c.068.4,6.716,40.57,0,80.872Z" transform="translate(-507.401 -146.844)"/><rect class="f" width="1.333" height="17.296" transform="translate(29.018 36.861) rotate(-61.858)"/><rect class="f" width="17.296" height="1.333" transform="translate(45.117 47.934) rotate(-28.158)"/><path class="c" d="M503.03,318.248a128.572,128.572,0,0,0-19.329-8.837c-36.914-13.357-73.518-8.209-87.845,10.907,11.15-23.419,50.936-30.783,91.085-16.255a131.1,131.1,0,0,1,13.7,5.851A69.6,69.6,0,0,1,503.03,318.248Z" transform="translate(-385.274 -251.82)"/><path class="d" d="M663.894,209.429l2.516-2.012a2.666,2.666,0,0,0-3.086,1.694,4.285,4.285,0,0,0-3.189.2l5.034,1.827A3.809,3.809,0,0,0,663.894,209.429Z" transform="translate(-595.992 -180.686)"/></g></svg>