<svg xmlns="http://www.w3.org/2000/svg" width="21.083" height="23" viewBox="0 0 21.083 23"><defs><style>.a{fill:#134f5c;}</style></defs><g transform="translate(-5.625 -4.5)"><path class="a" d="M12.938,27.5h3.375a.527.527,0,0,0,.563-.479V4.979a.527.527,0,0,0-.562-.479H12.938a.527.527,0,0,0-.562.479V27.021A.527.527,0,0,0,12.938,27.5Z" transform="translate(-1.222)"/><path class="a" d="M6.188,31.5H9.563a.564.564,0,0,0,.563-.562V20.813a.564.564,0,0,0-.562-.562H6.188a.564.564,0,0,0-.562.563V30.938A.564.564,0,0,0,6.188,31.5Z" transform="translate(0 -4)"/><path class="a" d="M19.695,31.5h3.361a.567.567,0,0,0,.57-.57V16.32a.567.567,0,0,0-.57-.57H19.695a.567.567,0,0,0-.57.57V30.93A.567.567,0,0,0,19.695,31.5Z" transform="translate(-2.444 -4)"/><path class="a" d="M25.875,9.57V30.93a.567.567,0,0,0,.57.57h3.361a.567.567,0,0,0,.57-.57V9.57a.567.567,0,0,0-.57-.57H26.445A.567.567,0,0,0,25.875,9.57Z" transform="translate(-3.667 -4)"/></g></svg>