<svg xmlns="http://www.w3.org/2000/svg" width="24" height="24" viewBox="0 0 24 24"><defs><style>.a{fill:#fafafa;}</style></defs><path class="a" d="M19.5,6c-.028,0-.052.009-.075.009A3.661,3.661,0,0,0,19.5,5.25a3.735,3.735,0,0,0-6.609-2.4A5.232,5.232,0,0,0,3,5.25a5.331,5.331,0,0,0,.1.994A4.488,4.488,0,0,0,4.5,15h15a4.5,4.5,0,0,0,0-9ZM4.125,17.541c-.6,2.081-1.875,2.644-1.875,4.111A2.3,2.3,0,0,0,4.5,24a2.3,2.3,0,0,0,2.25-2.348c0-1.472-1.275-2.02-1.875-4.111A.387.387,0,0,0,4.125,17.541Zm7.5,0c-.6,2.081-1.875,2.644-1.875,4.111a2.252,2.252,0,1,0,4.5,0c0-1.472-1.275-2.02-1.875-4.111A.387.387,0,0,0,11.625,17.541Zm7.5,0c-.6,2.081-1.875,2.644-1.875,4.111a2.252,2.252,0,1,0,4.5,0c0-1.472-1.275-2.02-1.875-4.111A.387.387,0,0,0,19.125,17.541Z"/></svg>