<svg xmlns="http://www.w3.org/2000/svg" width="330" height="260.819" viewBox="0 0 330 260.819"><defs><style>.a{fill:#3f3d56;}.b{fill:#7c7d7e;}.c{opacity:0.1;}.d{fill:#134f5c;}.e{fill:#92aa99;}.f{fill:#ffb9b9;}.g{fill:#d0cde1;}.h{fill:#2f2e41;}.i{fill:#529bdb;}.j{fill:#f2f2f2;}.k{fill:#6c63ff;}</style></defs><g transform="translate(0 0.001)"><path class="a" d="M767.07,558.629H766.3V474.193a2.307,2.307,0,0,0-.854-1.8l.488-.6a3.076,3.076,0,0,1,1.138,2.394Z" transform="translate(-536.613 -332.98)"/><path class="a" d="M565.922,135.23a6.766,6.766,0,0,1,.444,1.42C566.15,135.905,565.98,135.4,565.922,135.23Z" transform="translate(-414.07 -126.267)"/><path class="a" d="M582.747,196.37a11.3,11.3,0,0,1-.575,2.454Z" transform="translate(-424.05 -163.817)"/><path class="b" d="M401.486,224.923c-15.174,7.909-35.025,14.738-40.971,16.718,4.533-1.181,17.729-2.77,38.173,9.985,25.688,16.023,53.155,5.34,53.155,5.34s-6.1,11.7-19.075,12.462-46.8-20.6-58.24-14.5-16.787-1.528-21.367,13.735-12.967,56.967-3.3,80.367l9.661,23.4H304.586s19.839-52.9,8.9-85.452c-6.123-18.23-14.719-31.433-17.925-38.142-1.609-3.361-1.864-5.089.22-5,1.184.05,3.125.687,6.007,1.945,0,0-13.226-12.971-17.547-12.971s-24.673-2.033-31.282-8.9c0,0-9.41-6.613-26.2,9.665s-12.717,16.278-27.721,15a66.1,66.1,0,0,1-26.7-8.642c.428.174,17.678,7.068,28.223,3.557,10.683-3.561,19.839-17.042,29.249-21.618s15-10.683,27.721-4.07l-8.38-19.758-2.3-5.413,0-.008s-2.8-37.132-8.141-39.674-2.033-9.156-11.953-10.429c0,0,12.207-1.528,14.5,6.868s18.06,53.664,18.06,53.664,9.661,19.326,20.344,14.75-4.07-30.264-4.07-30.264l-18.311-8.4s13.735-.509,22.127,7.377,8.9,33.316,8.9,33.316,21.108,3.052,26.2,14.5c0,0,3.306-10.174-3.052-16.278a29.376,29.376,0,0,1-4.869-7.3,64.516,64.516,0,0,1-6.3-38.86c.945-6.5,1.528-12.867.49-14.368-2.288-3.307-11.953-23.651-12.717-28.995s.764-16.529.764-16.529.255,13.731,3.307,18.056,11.7,25.688,11.7,25.688,0,26.957,7.122,40.183S331.8,223.9,331.038,233.569v5.594s15.259-14.5,14.241-19.33-2.288-16.278-11.953-23.142-16.023-17.806-9.156-33.574a155.832,155.832,0,0,0,6.293-16.108l-4,17.127s-2.543,17.547,4.58,23.651c.019.015.035.031.054.046,7.111,6.111,16.475,17.25,16.475,17.25l-.027-.49-2.006-36.132.44.965,3.171,6.953,3,6.578s14.241-18.311,31.028-24.415,27.212-27.467,27.212-27.467l14.245-11.193-11.7,13.99S409.368,150.4,389.278,162.1s-33.061,28.991-33.825,39.674-1.528,20.094-1.528,20.094,37.641-1.273,46.032-17.806,15.263-17.293,15.263-17.293l-4.834,14.241-5.34,12.207s21.872.509,33.316,13.481,39.929,16.787,39.929,16.787l-16.019,4.321a147.328,147.328,0,0,1-29.758-14.5C418.018,223.9,419.542,215.512,401.486,224.923Z" transform="translate(-172.342 -111.999)"/><path class="c" d="M704.18,314.74c-1.609,7.122-3.5,14-6.165,19.245-8.392,16.532-46.032,17.806-46.032,17.806s.177-2.184.448-5.629c9.557-.787,35.681-4.148,42.5-17.578.625-1.227,1.2-2.546,1.752-3.935Z" transform="translate(-466.926 -236.518)"/><path class="c" d="M603.466,301.9s-9.41-11.193-16.529-17.3a12.383,12.383,0,0,1-3.418-5.355c-.062-.17-.12-.343-.177-.517.166.162.332.32.509.471,6.231,5.344,14.221,14.588,16.116,16.806l.413.49L598.4,260.84l3.171,6.953Z" transform="translate(-424.769 -203.413)"/><path class="c" d="M648.239,190.921a53.905,53.905,0,0,1-.868,9.986s14.236-18.3,31.018-24.412c.992-.627,2-1.245,3.028-1.845,20.092-11.7,23.653-28.23,23.653-28.23l11.7-13.988-14.242,11.19S692.1,164.986,675.312,171.09C663.87,175.25,653.612,185.081,648.239,190.921Z" transform="translate(-464.094 -124.548)"/><path class="c" d="M592.441,391.078v5.6s15.26-14.5,14.242-19.329c-.778-3.7-1.709-11.257-6.425-17.682,2.126,4.856,2.773,9.592,3.339,12.281.73,3.465-6.911,11.9-11.292,16.395A11.6,11.6,0,0,1,592.441,391.078Z" transform="translate(-430.274 -264.108)"/><path class="c" d="M539.6,341.567c.121.258.245.511.378.757,3.9,7.243,9.78,14.942,14.179,22.014C550.6,357.334,544.417,349.325,539.6,341.567Z" transform="translate(-397.906 -252.994)"/><path class="c" d="M704.178,458.828a73.761,73.761,0,0,0-21.359-9.462c-6.128,2.306-11.171,4.026-13.709,4.871,4.551-1.178,17.737-2.743,38.154,9.993,16.02,9.992,32.731,9.6,43.041,7.887a26.647,26.647,0,0,0,7.027-7.947S729.865,474.851,704.178,458.828Z" transform="translate(-477.446 -319.202)"/><path class="c" d="M564.161,245.468c-2.051-5.025-2.389-11-.033-18.011a54.96,54.96,0,0,1,.439-7.6l4-17.131a155.151,155.151,0,0,1-6.294,16.114C557.384,230.081,559.21,238.863,564.161,245.468Z" transform="translate(-410.064 -167.723)"/><path class="c" d="M814.711,388.61c-7.937-9-20.887-12-28.081-12.991l-2.15,4.913s21.872.509,33.317,13.479c6.347,7.193,17.932,11.569,27,14.041l9.848-2.657S826.156,401.58,814.711,388.61Z" transform="translate(-548.304 -273.908)"/><path class="c" d="M426.787,351.746c10.682-4.578-4.069-30.265-4.069-30.265l-.4-.185c3.677,7.759,9.011,21.781,1.386,25.049-7.135,3.058-13.815-4.55-17.465-9.94l.205.59S416.1,356.324,426.787,351.746Z" transform="translate(-315.994 -240.544)"/><path class="c" d="M507.683,412.237s3.219-9.921-2.828-16.047a20.669,20.669,0,0,1-.259,10.645c-3.935-8.853-17.456-12.684-23.378-13.964.23,2.948.269,4.869.269,4.869S502.6,400.792,507.683,412.237Z" transform="translate(-362.047 -284.504)"/><path class="c" d="M583.172,198.825a11.287,11.287,0,0,0,.573-2.452Z" transform="translate(-424.665 -163.819)"/><path class="c" d="M204.489,401.934l.154-.049c10.682-3.561,19.838-17.04,29.248-21.618s15.005-10.682,27.722-4.069c0,0-2.225-9.106-6.536-15.089a59.332,59.332,0,0,1,3.449,9.688c-12.716-6.612-18.312-.509-27.722,4.069s-18.566,18.057-29.248,21.618-28.23-3.561-28.23-3.561a66.006,66.006,0,0,0,26.7,8.647C201.747,401.716,203.212,401.844,204.489,401.934Z" transform="translate(-172.947 -264.997)"/><path class="c" d="M361.329,271.706l-1.173.019-2.3-5.413c.251,0,.382-.008.382-.008s-1.767-23.419-5.17-34.334c.042.019.077.042.116.062C358.527,234.574,361.329,271.706,361.329,271.706Z" transform="translate(-283.342 -185.682)"/><path class="c" d="M521.047,622.654c4.66-14.285,15.867-53.788,7.044-80.053-3.81-11.343-7.342-18.576-10.328-23.19A131.123,131.123,0,0,1,525,537.2c10.936,32.554-8.9,85.454-8.9,85.454Z" transform="translate(-383.472 -362.222)"/><path class="c" d="M499.382,461.031a28.281,28.281,0,0,0-9.7-2.342c-1.609-3.361-1.863-5.089.22-5,.579.1,1.161.228,1.74.37C495.733,457.451,499.382,461.031,499.382,461.031Z" transform="translate(-366.463 -321.853)"/><path class="c" d="M338.4,211.727a6.657,6.657,0,0,0,1.046,1.337,7.5,7.5,0,0,0-1.046-1.337Z" transform="translate(-274.329 -173.249)"/><path class="c" d="M418.707,298.789a12.374,12.374,0,0,1,1.1,1.189,19.061,19.061,0,0,0-4.189-6.59c-8.393-7.884-22.127-7.376-22.127-7.376l17.224,7.894A24.6,24.6,0,0,1,418.707,298.789Z" transform="translate(-308.169 -218.87)"/><path class="c" d="M485.632,157.521c1.038,1.5.455,7.862-.493,14.368a64.511,64.511,0,0,0,6.307,38.858,45.249,45.249,0,0,0,2.71,4.652,64.572,64.572,0,0,1-5.93-38.108c.948-6.507,1.531-12.869.493-14.368-2.289-3.306-11.953-23.653-12.716-28.993a37.01,37.01,0,0,1-.159-6.241c-1.976-5.605-2.164-15.692-2.164-15.692s-1.526,11.19-.763,16.531S483.343,154.215,485.632,157.521Z" transform="translate(-356.816 -111.997)"/><path class="c" d="M567.321,136.532a7.28,7.28,0,0,0-.462-1.463S567.055,135.617,567.321,136.532Z" transform="translate(-414.646 -126.167)"/><path class="c" d="M322.431,196.386a13.4,13.4,0,0,1,6.786,2.557c-.128-.434-.24-.823-.329-1.15-2.289-8.393-14.5-6.867-14.5-6.867C319.909,191.634,321.333,193.994,322.431,196.386Z" transform="translate(-259.586 -160.408)"/><path class="d" d="M952.265,740.64c-3.793,5.817-2.754,13.215-2.754,13.215s7.189-2.033,10.982-7.849,2.754-13.215,2.754-13.215S956.058,734.823,952.265,740.64Z" transform="translate(-649.582 -493.275)"/><path class="e" d="M948.6,735.466c-.3,6.938-5.45,12.35-5.45,12.35s-4.664-5.836-4.364-12.774,5.45-12.35,5.45-12.35S948.9,728.528,948.6,735.466Z" transform="translate(-643.064 -487.073)"/><path class="f" d="M791.088,635.99s4.364-4.579,6.151-3.658-5.136,5.015-5.136,5.015Z" transform="translate(-552.362 -431.501)"/><path class="c" d="M791.088,635.99s4.364-4.579,6.151-3.658-5.136,5.015-5.136,5.015Z" transform="translate(-552.362 -431.501)"/><path class="g" d="M754.577,615.8a10.822,10.822,0,0,0-1.185,5.976c.42,3.1,4.259,13.047,5.565,12.871s10.974-7.3,10.974-7.3l-1.844-2.575-7.063,4.28S759.948,613.747,754.577,615.8Z" transform="translate(-529.167 -421.307)"/><path class="h" d="M801.354,625.573l-11.011,6.048a.524.524,0,0,1-.771-.227l-2.7-5.638a.7.7,0,0,1,.361-.845l9.142-4.712a.534.534,0,0,1,.7.134l4.566,4.3a.678.678,0,0,1-.289.939Z" transform="translate(-549.753 -424.076)"/><path class="i" d="M629.4,513.939l-10.323,5.9-2.747-4.951,8.855-4.816Z" transform="translate(-378.539 -313.276)"/><ellipse class="j" cx="0.152" cy="0.13" rx="0.152" ry="0.13" transform="translate(241.909 198.91) rotate(-50.158)"/><ellipse class="j" cx="0.101" cy="0.086" rx="0.101" ry="0.086" transform="translate(245.808 203.964) rotate(-50.158)"/><path class="c" d="M754.577,615.8a10.822,10.822,0,0,0-1.185,5.976c.42,3.1,4.259,13.047,5.565,12.871s10.974-7.3,10.974-7.3l-1.844-2.575-7.063,4.28S759.948,613.747,754.577,615.8Z" transform="translate(-529.167 -421.307)"/><path class="f" d="M783.44,639.484s4.94-3.951,6.586-2.8-5.763,4.281-5.763,4.281Z" transform="translate(-547.665 -434.12)"/><circle class="f" cx="4.775" cy="4.775" r="4.775" transform="translate(224.414 180.009)"/><path class="f" d="M800.883,677.134s5.1.659,4.939,3.787-3.952,16.135-3.952,16.135l-.329,5.1s.329,8.562-.659,8.4-3.293-6.092-3.293-6.092-2.8-1.811-1.482-3.458,2.305-1.482,1.976-3.293-.165-9.385.823-11.69,1.563-3.576,1.563-3.576l-3.21-.21Z" transform="translate(-555.229 -459.092)"/><path class="c" d="M800.883,677.134s5.1.659,4.939,3.787-3.952,16.135-3.952,16.135l-.329,5.1s.329,8.562-.659,8.4-3.293-6.092-3.293-6.092-2.8-1.811-1.482-3.458,2.305-1.482,1.976-3.293-.165-9.385.823-11.69,1.563-3.576,1.563-3.576l-3.21-.21Z" transform="translate(-555.229 -459.092)"/><path class="f" d="M804.394,679.268s4.939,1.152,5.433,4.445,2.964,13.007,2.964,13.007l2.634,6.092s4.116,7.409,2.305,7.245-4.281-3.787-5.1-3.787-3.293-.988-3.128-1.646a19.109,19.109,0,0,1,1.317-2.634l-3.983-6.939a16.858,16.858,0,0,1-1.728-4.276,29.975,29.975,0,0,1-.875-4.262c0-1.152-3.293-1.646-3.293-1.646Z" transform="translate(-558.411 -460.403)"/><path class="h" d="M742.3,651.956l2.305,6.586s3.622.988,6.257,1.811,7.574-.329,8.068,1.646-.988,5.433-2.47,6.257-2.305,1.646-7.08.329-16.135-1.647-16.135-1.647a8.253,8.253,0,0,1-3.622,1.152c-2.14.165-2.634.329-3.293-.165s.329-.494.659-1.811.494-.823,1.976-2.305,2.634-5.927,3.458-7.409a18.141,18.141,0,0,0,1.317-4.445Z" transform="translate(-512.453 -443.628)"/><path class="f" d="M756.216,595.95a4.821,4.821,0,0,0-1.976,3.787c0,2.47-4.939-2.634-4.939-2.634s2.634-3.293,2.634-4.281S756.216,595.95,756.216,595.95Z" transform="translate(-526.697 -407.215)"/><path class="g" d="M744.528,598.613s2.964,1.152,3.622,2.8a38.12,38.12,0,0,0,3.128,5.1s3.458,3.622,2.305,7.574-2.14,4.939-2.14,5.6-1.646,1.811-2.964,1.646-6.257-.823-6.586-1.482-2.305-10.044-.988-13.5a79.881,79.881,0,0,1,3.622-7.738Z" transform="translate(-521.266 -410.866)"/><path class="h" d="M750.121,577.744a3.786,3.786,0,0,0,2.993-1.1c.5-.383,1.044-.93.892-1.547-.135-.547-.78-.857-.874-1.414-.065-.386.161-.762.179-1.154a1.63,1.63,0,0,0-.959-1.4c-.521-.28-1.111-.4-1.646-.648a14.426,14.426,0,0,0-2.368-1.295c-1.192-.3-2.4.341-3.63.425-.741.05-1.492-.106-2.226.016a3.177,3.177,0,0,0-2.545,3,2.561,2.561,0,0,1-.217,1.524,2.3,2.3,0,0,1-.419.379,5.069,5.069,0,0,0-1.64,3.771c-.028.7.119,1.527.738,1.824a2.736,2.736,0,0,0,1.032.143,1.078,1.078,0,0,1,.911.435c.282.5-.141,1.233.228,1.667a.836.836,0,0,0,1.141-.06c.324-.278.525-.678.832-.975a3.766,3.766,0,0,1,2.3-.771,1.167,1.167,0,0,0,.675-.221,1.043,1.043,0,0,0,.277-.567,3.516,3.516,0,0,0,0-1.49.828.828,0,0,1-.019-.472.67.67,0,0,1,.242-.27,3.32,3.32,0,0,1,2.054-.831C748.808,576.83,749.383,577.57,750.121,577.744Z" transform="translate(-519.547 -392.744)"/><path class="g" d="M749.569,613.848a10.822,10.822,0,0,0-1.976,5.763c0,3.128,2.47,13.5,3.787,13.5s11.855-5.763,11.855-5.763l-1.482-2.8-7.574,3.293S755.167,612.531,749.569,613.848Z" transform="translate(-525.648 -420.174)"/><rect class="e" width="37.811" height="7.331" transform="translate(208.466 223.393)"/><path class="a" d="M756.745,562.986a3.09,3.09,0,0,1-3.087-3.086v-86.81a3.087,3.087,0,0,1,5.035-2.394l-.488.6a2.315,2.315,0,0,0-3.776,1.8V559.9a2.317,2.317,0,0,0,2.315,2.315Z" transform="translate(-529.373 -331.877)"/><rect class="a" width="310.973" height="0.772" transform="translate(19.027 260.046)"/><ellipse class="k" cx="0.386" cy="1.157" rx="0.386" ry="1.157" transform="translate(219.788 181.065) rotate(-38.768)"/><path class="d" d="M656.265,740.64c-3.793,5.817-2.754,13.215-2.754,13.215s7.189-2.033,10.982-7.849,2.754-13.215,2.754-13.215S660.058,734.823,656.265,740.64Z" transform="translate(-467.785 -493.275)"/><path class="e" d="M652.6,735.466c-.3,6.938-5.45,12.35-5.45,12.35s-4.664-5.836-4.364-12.774,5.45-12.35,5.45-12.35S652.9,728.528,652.6,735.466Z" transform="translate(-461.268 -487.073)"/><path class="d" d="M498.2,737.475c1.813,6.7,8.024,10.855,8.024,10.855s3.271-6.717,1.458-13.42-8.025-10.855-8.025-10.855S496.382,730.772,498.2,737.475Z" transform="translate(-372.137 -487.91)"/><path class="e" d="M486.178,746.745c4.976,4.844,5.584,12.29,5.584,12.29s-7.46-.407-12.436-5.251-5.584-12.29-5.584-12.29S481.2,741.9,486.178,746.745Z" transform="translate(-357.456 -498.62)"/><path class="e" d="M447.575,263.58c-.433,6.931-5.685,12.243-5.685,12.243s-4.551-5.924-4.119-12.855,5.685-12.243,5.685-12.243S448.008,256.65,447.575,263.58Z" transform="translate(-335.345 -197.201)"/><path class="e" d="M300.211,166.151c5.874,3.7,8.017,10.86,8.017,10.86s-7.381,1.153-13.256-2.551-8.017-10.86-8.017-10.86S294.337,162.448,300.211,166.151Z" transform="translate(-242.735 -143.587)"/><path class="e" d="M266.211,385.151c5.874,3.7,8.017,10.86,8.017,10.86s-7.381,1.152-13.256-2.551-8.017-10.86-8.017-10.86S260.337,381.448,266.211,385.151Z" transform="translate(-221.853 -278.092)"/><path class="e" d="M580.883,181.15c-1.771,6.714-7.957,10.9-7.957,10.9s-3.313-6.7-1.542-13.41,7.957-10.9,7.957-10.9S582.654,174.436,580.883,181.15Z" transform="translate(-417.105 -146.233)"/><path class="e" d="M725.578,194.629c-2.082,6.625-8.456,10.522-8.456,10.522s-3-6.843-.916-13.468,8.456-10.522,8.456-10.522S727.66,188,725.578,194.629Z" transform="translate(-505.92 -154.477)"/><path class="e" d="M880.555,386.113C876.783,391.944,869.6,394,869.6,394s-1.066-7.394,2.705-13.225,10.953-7.89,10.953-7.89S884.326,380.282,880.555,386.113Z" transform="translate(-600.498 -272.231)"/><path class="a" d="M866,206" transform="translate(-598.371 -169.732)"/></g></svg>