<svg xmlns="http://www.w3.org/2000/svg" width="23" height="23" viewBox="0 0 23 23"><defs><style>.a{fill:#9093a3;}</style></defs><path class="a" d="M23.563,12.041A11.5,11.5,0,0,1,4.845,21.016a1.112,1.112,0,0,1-.085-1.651l.522-.522a1.115,1.115,0,0,1,1.479-.092,8.533,8.533,0,1,0-.545-12.9L8.57,8.2a.742.742,0,0,1-.525,1.267H1.3a.742.742,0,0,1-.742-.742V1.983a.742.742,0,0,1,1.267-.525L4.119,3.747a11.5,11.5,0,0,1,19.444,8.293Zm-8.389,3.653.456-.586a1.113,1.113,0,0,0-.2-1.562l-1.887-1.468V7.24a1.113,1.113,0,0,0-1.113-1.113h-.742A1.113,1.113,0,0,0,10.579,7.24v6.29l3.033,2.359a1.113,1.113,0,0,0,1.562-.2Z" transform="translate(-0.563 -0.563)"/></svg>