<svg xmlns="http://www.w3.org/2000/svg" width="360" height="249.911" viewBox="0 0 360 249.911"><defs><style>.a{fill:#f6d322;}.b{fill:#edf3ef;}.c{fill:#3f3d56;}.d{fill:#134f5c;}.e{fill:#2f2e41;}.f{fill:#fff;}.g{fill:#92aa99;}</style></defs><g transform="translate(0)"><circle class="a" cx="20.56" cy="20.56" r="20.56" transform="translate(47.736 12.529)"/><path class="b" d="M291.483,171.273c0,48.513-28.841,65.453-64.417,65.453s-64.417-16.939-64.417-65.453S227.066,61.042,227.066,61.042,291.483,122.759,291.483,171.273Z" transform="translate(-123.152 -61.042)"/><path class="c" d="M261.455,168.262l.66-40.6,27.456-50.23-27.353,43.861.3-18.256,18.923-36.341L262.594,98.2h0l.533-32.834L283.39,36.438,263.211,60.207,263.544,0,261.45,79.7l.172-3.288-20.6-31.534,20.271,37.845-1.919,36.67-.057-.973-23.75-33.185,23.678,36.623-.24,4.586-.043.069.02.377-4.87,93.036h6.507l.781-48.055,23.62-36.533Z" transform="translate(-159.888)"/><path class="b" d="M937.493,275.381c0,39.711-23.607,53.576-52.729,53.576s-52.729-13.865-52.729-53.576,52.728-90.229,52.728-90.229S937.493,235.67,937.493,275.381Z" transform="translate(-577.493 -145.281)"/><path class="c" d="M905.707,261.841l.54-33.234,22.475-41.116-22.39,35.9.243-14.943,15.49-29.747-15.426,25.792h0l.437-26.876,16.586-23.682-16.518,19.456.273-49.282L905.7,189.35l.141-2.691-16.863-25.812,16.593,30.979L904,221.842l-.047-.8-19.44-27.163L903.9,223.86l-.2,3.754-.035.057.016.308-3.986,76.154h5.326l.639-39.335,19.333-29.9Z" transform="translate(-600.357 -84.239)"/><ellipse class="d" cx="178.167" cy="9.006" rx="178.167" ry="9.006" transform="translate(0 209.603)"/><ellipse class="c" cx="30.516" cy="1.543" rx="30.516" ry="1.543" transform="translate(256.189 231.946)"/><ellipse class="d" cx="30.516" cy="1.543" rx="30.516" ry="1.543" transform="translate(145.765 246.826)"/><ellipse class="d" cx="69.717" cy="3.524" rx="69.717" ry="3.524" transform="translate(22.787 232.369)"/><circle class="e" cx="25.379" cy="25.379" r="25.379" transform="translate(5.81 156.539)"/><rect class="e" width="7.71" height="13.814" transform="translate(19.39 201.698) rotate(0.675)"/><rect class="e" width="7.71" height="13.814" transform="translate(34.809 201.88) rotate(0.675)"/><ellipse class="e" cx="2.409" cy="6.425" rx="2.409" ry="6.425" transform="translate(19.196 218.081) rotate(-89.325)"/><ellipse class="e" cx="2.409" cy="6.425" rx="2.409" ry="6.425" transform="translate(34.62 217.942) rotate(-89.325)"/><circle class="f" cx="8.674" cy="8.674" r="8.674" transform="translate(23.233 166.827)"/><circle class="c" cx="2.891" cy="2.891" r="2.891" transform="translate(29.016 172.61)"/><path class="g" d="M60.315,508.6c-1.941-9.2,4.719-18.4,14.874-20.539s19.962,3.58,21.9,12.781-4.812,12.507-14.968,14.649S62.256,517.8,60.315,508.6Z" transform="translate(-53.466 -350.574)"/><path class="g" d="M158.023,586.446c0,17.694-10.518,23.871-23.494,23.871q-.451,0-.9-.01c-.6-.013-1.2-.042-1.785-.082-11.71-.829-20.808-7.324-20.808-23.78,0-17.029,21.762-38.517,23.4-40.108l0,0,.094-.092S158.023,568.753,158.023,586.446Z" transform="translate(-88.12 -390.369)"/><path class="c" d="M161.551,607.611l8.593-12.007-8.614,13.325-.023,1.378c-.6-.013-1.2-.042-1.785-.082l.926-17.7-.007-.137.016-.026.087-1.672-8.636-13.358,8.663,12.1.02.355.7-13.375-7.393-13.8,7.483,11.456.729-27.729,0-.094v.092l-.122,21.866,7.36-8.669-7.39,10.552-.195,11.975,6.872-11.493-6.9,13.255-.109,6.657,9.977-16L161.791,592.8Z" transform="translate(-115.997 -390.369)"/><circle class="e" cx="25.379" cy="25.379" r="25.379" transform="translate(203.512 156.264)"/><rect class="e" width="7.71" height="13.814" transform="matrix(0.956, -0.294, 0.294, 0.956, 223.687, 204.082)"/><rect class="e" width="7.71" height="13.814" transform="matrix(0.956, -0.294, 0.294, 0.956, 238.427, 199.552)"/><ellipse class="e" cx="6.425" cy="2.409" rx="6.425" ry="2.409" transform="matrix(0.956, -0.294, 0.294, 0.956, 227.084, 215.137)"/><ellipse class="e" cx="6.425" cy="2.409" rx="6.425" ry="2.409" transform="matrix(0.956, -0.294, 0.294, 0.956, 241.73, 210.3)"/><circle class="f" cx="8.674" cy="8.674" r="8.674" transform="translate(218.944 166.64)"/><circle class="c" cx="2.891" cy="2.891" r="2.891" transform="translate(224.727 172.422)"/><path class="g" d="M653.022,522.16c-4.655-8.171-1.117-18.959,7.9-24.1s20.1-2.679,24.758,5.491-.768,13.378-9.787,18.516S657.677,530.331,653.022,522.16Z" transform="translate(-454.597 -355.845)"/><path class="g" d="M520.168,583.33c0,16.242-9.655,21.913-21.566,21.913q-.414,0-.826-.009c-.552-.012-1.1-.038-1.638-.075-10.75-.761-19.1-6.724-19.1-21.829,0-15.632,19.976-35.357,21.477-36.817l0,0,.087-.084S520.168,567.088,520.168,583.33Z" transform="translate(-336.54 -390.493)"/><path class="c" d="M523.406,602.758l7.888-11.021-7.907,12.232-.021,1.265c-.552-.012-1.1-.038-1.639-.075l.85-16.25-.007-.126.014-.024.08-1.535-7.927-12.262,7.952,11.111.018.326.642-12.278-6.787-12.671,6.87,10.516.669-25.454,0-.087v.084l-.112,20.072,6.756-7.957-6.784,9.686-.179,10.993,6.308-10.55-6.335,12.167-.1,6.111,9.158-14.683-9.192,16.816Z" transform="translate(-362.13 -390.492)"/><path class="g" d="M776.023,597.446c0,17.694-10.518,23.871-23.494,23.871q-.451,0-.9-.01c-.6-.013-1.2-.042-1.785-.082-11.71-.829-20.808-7.324-20.808-23.78,0-17.029,21.762-38.517,23.4-40.108l0,0,.094-.092S776.023,579.753,776.023,597.446Z" transform="translate(-507.583 -397.835)"/><path class="c" d="M779.551,618.611l8.593-12.007-8.614,13.325-.023,1.378c-.6-.013-1.2-.042-1.785-.082l.926-17.7-.007-.137.016-.026.087-1.672-8.636-13.358,8.663,12.1.02.355.7-13.375-7.393-13.8,7.483,11.456.729-27.729,0-.094v.092l-.122,21.866,7.36-8.669-7.39,10.552-.195,11.975,6.872-11.493-6.9,13.255-.109,6.657,9.977-16L779.791,603.8Z" transform="translate(-535.46 -397.835)"/><ellipse class="e" cx="3.984" cy="12.69" rx="3.984" ry="12.69" transform="translate(205.866 189.56) rotate(-64.626)"/><ellipse class="e" cx="3.984" cy="12.69" rx="3.984" ry="12.69" transform="translate(10.132 188.768) rotate(-68.159)"/></g></svg>